<svg width="14" height="14" viewBox="0 0 14 14" fill="none" xmlns="http://www.w3.org/2000/svg">
<path d="M10.5 7.58217H7.58333V10.4988C7.58333 10.6535 7.52187 10.8019 7.41248 10.9113C7.30308 11.0207 7.15471 11.0822 7 11.0822C6.84529 11.0822 6.69692 11.0207 6.58752 10.9113C6.47812 10.8019 6.41666 10.6535 6.41666 10.4988V7.58217H3.5C3.34529 7.58217 3.19691 7.52071 3.08752 7.41131C2.97812 7.30192 2.91666 7.15354 2.91666 6.99883C2.91666 6.84412 2.97812 6.69575 3.08752 6.58636C3.19691 6.47696 3.34529 6.4155 3.5 6.4155H6.41666V3.49883C6.41666 3.34412 6.47812 3.19575 6.58752 3.08635C6.69692 2.97696 6.84529 2.9155 7 2.9155C7.15471 2.9155 7.30308 2.97696 7.41248 3.08635C7.52187 3.19575 7.58333 3.34412 7.58333 3.49883V6.4155H10.5C10.6547 6.4155 10.8031 6.47696 10.9125 6.58636C11.0219 6.69575 11.0833 6.84412 11.0833 6.99883C11.0833 7.15354 11.0219 7.30192 10.9125 7.41131C10.8031 7.52071 10.6547 7.58217 10.5 7.58217Z" fill="black"/>
<rect x="0.25" y="0.25" width="13.5" height="13.5" rx="6.75" stroke="black" stroke-width="0.5"/>
</svg>
