<svg width="18" height="18" viewBox="0 0 18 18" fill="none" xmlns="http://www.w3.org/2000/svg">
<path d="M5.475 15.75C5 15.75 4.59375 15.578 4.25625 15.234C3.91875 14.89 3.75 14.4807 3.75 14.0062V7.05L2.38125 3.75H0.75V2.25H3.39375L4.63125 5.25H15.7125C16 5.25 16.2188 5.36875 16.3688 5.60625C16.5188 5.84375 16.525 6.0875 16.3875 6.3375L14.25 10.5187C14.8875 10.6187 15.422 10.9125 15.8535 11.4C16.285 11.8875 16.5005 12.4625 16.5 13.125C16.5 13.85 16.247 14.4688 15.741 14.9813C15.235 15.4938 14.619 15.75 13.893 15.75C13.1555 15.75 12.5338 15.4938 12.0278 14.9813C11.5218 14.4688 11.2687 13.85 11.2687 13.125C11.2687 12.875 11.3 12.6438 11.3625 12.4313C11.425 12.2188 11.5125 12.0125 11.625 11.8125L9.16875 11.5875L6.91875 14.9625C6.75625 15.2125 6.54675 15.4063 6.29025 15.5438C6.03375 15.6813 5.762 15.75 5.475 15.75ZM12.6375 10.4062L14.4938 6.75L5.25 6.76875L6.1875 9C6.2875 9.25 6.447 9.4595 6.666 9.6285C6.885 9.7975 7.138 9.89425 7.425 9.91875L12.6375 10.4062ZM5.49375 14.2313C5.51875 14.2313 5.575 14.2 5.6625 14.1375L7.48125 11.4375C6.86875 11.375 6.3875 11.2283 6.0375 10.9973C5.6875 10.7663 5.425 10.5255 5.25 10.275V14.025C5.25 14.0875 5.275 14.1375 5.325 14.175C5.375 14.2125 5.43125 14.2313 5.49375 14.2313ZM13.875 14.25C14.2 14.25 14.4688 14.1405 14.6813 13.9215C14.8938 13.7025 15 13.437 15 13.125C15 12.8 14.8938 12.5312 14.6813 12.3187C14.4688 12.1062 14.2 12 13.875 12C13.5625 12 13.2968 12.1062 13.0778 12.3187C12.8588 12.5312 12.7495 12.8 12.75 13.125C12.75 13.4375 12.8595 13.7032 13.0785 13.9222C13.2975 14.1412 13.563 14.2505 13.875 14.25Z" fill="black"/>
</svg>
