<svg width="18" height="18" viewBox="0 0 18 18" fill="none" xmlns="http://www.w3.org/2000/svg">
<path d="M0.384128 8.92176C0.383707 10.4391 0.781957 11.9207 1.53922 13.2266L0.311707 17.6885L4.89833 16.4912C6.16693 17.1788 7.58831 17.539 9.03271 17.5391H9.0365C13.8047 17.5391 17.6862 13.6764 17.6882 8.92855C17.6892 6.62789 16.79 4.46451 15.1564 2.83689C13.523 1.20942 11.3507 0.312665 9.03615 0.311615C4.26735 0.311615 0.386167 4.17415 0.384199 8.92176" fill="url(#paint0_linear_2_144)"/>
<path d="M0.0752344 8.91898C0.0747422 10.4909 0.487266 12.0255 1.27153 13.3782L0 18L4.75109 16.7598C6.06016 17.4704 7.53405 17.845 9.03382 17.8456H9.03769C13.977 17.8456 17.9979 13.8439 18 8.92612C18.0008 6.54279 17.0693 4.30164 15.3773 2.61572C13.6851 0.930005 11.4351 0.000979984 9.03769 0C4.09753 0 0.0772031 4.00114 0.0752344 8.91898ZM2.90461 13.1452L2.72721 12.8649C1.98148 11.6844 1.58787 10.3203 1.58843 8.91954C1.59005 4.83195 4.93158 1.50638 9.0405 1.50638C11.0303 1.50722 12.9004 2.27944 14.3069 3.68054C15.7134 5.08178 16.4873 6.94445 16.4868 8.92556C16.485 13.0131 13.1434 16.3391 9.03769 16.3391H9.03473C7.69788 16.3384 6.38677 15.981 5.24334 15.3056L4.97123 15.145L2.15184 15.8809L2.90461 13.1452V13.1452Z" fill="url(#paint1_linear_2_144)"/>
<path d="M6.79769 5.19029C6.62992 4.81908 6.45337 4.81159 6.29383 4.80508C6.16319 4.79948 6.01384 4.7999 5.86464 4.7999C5.7153 4.7999 5.47265 4.85583 5.26755 5.07878C5.06223 5.30194 4.4837 5.84121 4.4837 6.93802C4.4837 8.0349 5.28618 9.09489 5.39805 9.24378C5.51006 9.39239 6.94724 11.7152 9.2234 12.6088C11.1151 13.3515 11.5 13.2038 11.9106 13.1665C12.3212 13.1294 13.2356 12.6274 13.4221 12.1068C13.6088 11.5863 13.6088 11.1401 13.5528 11.0469C13.4969 10.954 13.3475 10.8982 13.1236 10.7868C12.8995 10.6753 11.7986 10.1359 11.5934 10.0615C11.388 9.98717 11.2388 9.95007 11.0894 10.1733C10.9401 10.3962 10.5112 10.8982 10.3805 11.0469C10.25 11.1959 10.1192 11.2145 9.89537 11.103C9.67129 10.9911 8.95009 10.756 8.09446 9.99655C7.42874 9.40562 6.97931 8.67588 6.84866 8.45265C6.71802 8.22978 6.83467 8.10896 6.94696 7.99787C7.04758 7.89798 7.17098 7.73755 7.28306 7.60742C7.39471 7.47722 7.43198 7.38433 7.50665 7.23565C7.58139 7.08684 7.54398 6.95664 7.48809 6.84513C7.43198 6.73362 6.99681 5.63107 6.79769 5.19029Z" fill="white"/>
<defs>
<linearGradient id="paint0_linear_2_144" x1="869.139" y1="1738" x2="869.139" y2="0.311615" gradientUnits="userSpaceOnUse">
<stop stop-color="#1FAF38"/>
<stop offset="1" stop-color="#60D669"/>
</linearGradient>
<linearGradient id="paint1_linear_2_144" x1="900" y1="1800" x2="900" y2="0" gradientUnits="userSpaceOnUse">
<stop stop-color="#F9F9F9"/>
<stop offset="1" stop-color="white"/>
</linearGradient>
</defs>
</svg>
